<svg width="22" height="22" viewBox="0 0 22 22" fill="none" xmlns="http://www.w3.org/2000/svg">
<path d="M14.752 12.312C14.592 13.184 14.216 13.884 13.624 14.412C13.04 14.932 12.296 15.192 11.392 15.192C10.608 15.192 9.932 15.004 9.364 14.628C8.796 14.244 8.36 13.716 8.056 13.044C7.752 12.372 7.6 11.608 7.6 10.752C7.6 9.888 7.748 9.12 8.044 8.448C8.348 7.768 8.784 7.24 9.352 6.864C9.928 6.48 10.608 6.288 11.392 6.288C12.232 6.288 12.94 6.536 13.516 7.032C14.1 7.52 14.488 8.168 14.68 8.976L13.816 9.048C13.672 8.448 13.388 7.972 12.964 7.62C12.54 7.268 12.016 7.092 11.392 7.092C10.752 7.092 10.212 7.252 9.772 7.572C9.332 7.884 9 8.316 8.776 8.868C8.56 9.42 8.452 10.048 8.452 10.752C8.452 11.456 8.56 12.08 8.776 12.624C9 13.168 9.332 13.6 9.772 13.92C10.22 14.232 10.76 14.388 11.392 14.388C12.048 14.388 12.592 14.196 13.024 13.812C13.464 13.428 13.748 12.904 13.876 12.24L14.752 12.312Z" fill="#1E4731"/>
<circle cx="11" cy="11" r="10.75" stroke="#1E4731" stroke-width="0.5"/>
</svg>
